<?xml version="1.0" encoding="UTF-8" standalone="no"?>
<!DOCTYPE svg PUBLIC "-//W3C//DTD SVG 1.0//EN" "http://www.w3.org/TR/2001/PR-SVG-20010719/DTD/svg10.dtd">
<svg width="30cm" height="32cm" viewBox="100 99 585 633" xmlns="http://www.w3.org/2000/svg" xmlns:xlink="http://www.w3.org/1999/xlink">
  <g>
    <polygon style="fill: #ffffff" points="102,101 198,101 198,159.667 150,189 102,159.667 "/>
    <polygon style="fill: none; fill-opacity:0; stroke-width: 3; stroke: #0000ff" points="102,101 198,101 198,159.667 150,189 102,159.667 "/>
  </g>
  <text font-size="12.8" style="fill: #000000;text-anchor:middle;font-family:sans-serif;font-style:normal;font-weight:normal" x="149" y="116.467">
    <tspan x="149" y="116.467">create</tspan>
    <tspan x="149" y="132.467">initial </tspan>
    <tspan x="149" y="148.467">invoice </tspan>
    <tspan x="149" y="164.467">in UBL</tspan>
  </text>
  <g>
    <polygon style="fill: #ffffff" points="111,249 111,334 189,334 189,249 "/>
    <rect style="fill: none; fill-opacity:0; stroke-width: 3; stroke: #0000ff" x="111" y="249" width="78" height="85"/>
    <path style="fill: none; fill-opacity:0; stroke-width: 3; stroke: #0000ff" d="M 150 263.167 C 124,263.167 176,319.833 150,319.833 C 124,319.833 176,263.167 150,263.167"/>
  </g>
  <text font-size="12.8" style="fill: #000000;text-anchor:start;font-family:sans-serif;font-style:normal;font-weight:normal" x="195" y="232">
    <tspan x="195" y="232">lichen </tspan>
    <tspan x="195" y="248">(or equivalent)</tspan>
  </text>
  <g>
    <line style="fill: none; fill-opacity:0; stroke-width: 3; stroke: #000000" x1="150" y1="189" x2="150" y2="240.786"/>
    <polyline style="fill: none; fill-opacity:0; stroke-width: 3; stroke: #000000" points="145,234.14 150,244.14 155,234.14 "/>
  </g>
  <g>
    <rect style="fill: #ffffff" x="335" y="246.485" width="50.9" height="44.9118"/>
    <ellipse style="fill: #ffffff" cx="360.45" cy="291.397" rx="25.45" ry="7.48529"/>
    <ellipse style="fill: #ffffff" cx="360.45" cy="246.485" rx="25.45" ry="7.48529"/>
    <ellipse style="fill: none; fill-opacity:0; stroke-width: 3; stroke: #add8e6" cx="360.45" cy="246.485" rx="25.45" ry="7.48529"/>
    <path style="fill: none; fill-opacity:0; stroke-width: 3; stroke: #add8e6" d="M 385.9 246.485 L 385.9,291.397 C 385.9,295.531 374.506,298.882 360.45,298.882 C 346.394,298.882 335,295.531 335,291.397 L 335,246.485"/>
    <text font-size="12.8" style="fill: #e12f21;text-anchor:middle;font-family:sans-serif;font-style:normal;font-weight:normal" x="360.45" y="310.882">
      <tspan x="360.45" y="310.882">rule</tspan>
      <tspan x="360.45" y="326.882">database</tspan>
    </text>
  </g>
  <g>
    <line style="fill: none; fill-opacity:0; stroke-width: 3; stroke: #000000" x1="190.406" y1="287.259" x2="326.823" y2="272.942"/>
    <polyline style="fill: none; fill-opacity:0; stroke-width: 3; stroke: #000000" points="320.736,278.608 330.159,272.592 319.692,268.663 "/>
  </g>
  <g>
    <line style="fill: none; fill-opacity:0; stroke-width: 3; stroke: #000000" x1="360.45" y1="298.882" x2="197.204" y2="293.156"/>
    <polyline style="fill: none; fill-opacity:0; stroke-width: 3; stroke: #000000" points="204.021,288.392 193.852,293.038 203.67,298.386 "/>
  </g>
  <text font-size="12.8" style="fill: #000000;text-anchor:middle;font-family:sans-serif;font-style:normal;font-weight:normal" x="258" y="310">
    <tspan x="258" y="310">get list of rules</tspan>
    <tspan x="258" y="326">to apply</tspan>
  </text>
  <g>
    <rect style="fill: #cdcdcd" x="129.74" y="417.449" width="3.08971" height="33.9868"/>
    <rect style="fill: none; fill-opacity:0; stroke-width: 3; stroke: #000000" x="129.74" y="417.449" width="3.08971" height="33.9868"/>
    <rect style="fill: none; fill-opacity:0; stroke-width: 0.3; stroke: #000000" x="129.74" y="417.449" width="3.08971" height="33.9868"/>
    <rect style="fill: #cdcdcd" x="169.906" y="417.449" width="3.08971" height="33.9868"/>
    <rect style="fill: none; fill-opacity:0; stroke-width: 3; stroke: #000000" x="169.906" y="417.449" width="3.08971" height="33.9868"/>
    <rect style="fill: none; fill-opacity:0; stroke-width: 0.3; stroke: #000000" x="169.906" y="417.449" width="3.08971" height="33.9868"/>
    <rect style="fill: #cdcdcd" x="132.829" y="435.987" width="37.0765" height="6.17941"/>
    <rect style="fill: none; fill-opacity:0; stroke-width: 3; stroke: #000000" x="132.829" y="435.987" width="37.0765" height="6.17941"/>
    <rect style="fill: none; fill-opacity:0; stroke-width: 0.3; stroke: #000000" x="132.829" y="435.987" width="37.0765" height="6.17941"/>
    <rect style="fill: #020202" x="129.74" y="451.435" width="3.08971" height="3.08971"/>
    <rect style="fill: none; fill-opacity:0; stroke-width: 3; stroke: #000000" x="129.74" y="451.435" width="3.08971" height="3.08971"/>
    <rect style="fill: none; fill-opacity:0; stroke-width: 0.3; stroke: #000000" x="129.74" y="451.435" width="3.08971" height="3.08971"/>
    <rect style="fill: #020202" x="169.906" y="451.435" width="3.08971" height="3.08971"/>
    <rect style="fill: none; fill-opacity:0; stroke-width: 3; stroke: #000000" x="169.906" y="451.435" width="3.08971" height="3.08971"/>
    <rect style="fill: none; fill-opacity:0; stroke-width: 0.3; stroke: #000000" x="169.906" y="451.435" width="3.08971" height="3.08971"/>
    <rect style="fill: #cdcdcd" x="169.906" y="448.346" width="3.08971" height="3.39868"/>
    <rect style="fill: none; fill-opacity:0; stroke-width: 3; stroke: #000000" x="169.906" y="448.346" width="3.08971" height="3.39868"/>
    <rect style="fill: none; fill-opacity:0; stroke-width: 0.3; stroke: #000000" x="169.906" y="448.346" width="3.08971" height="3.39868"/>
    <rect style="fill: #cbcbcb" x="129.74" y="448.346" width="3.08971" height="3.39868"/>
    <rect style="fill: none; fill-opacity:0; stroke-width: 3; stroke: #000000" x="129.74" y="448.346" width="3.08971" height="3.39868"/>
    <rect style="fill: none; fill-opacity:0; stroke-width: 0.3; stroke: #000000" x="129.74" y="448.346" width="3.08971" height="3.39868"/>
    <polygon style="fill: #ffffff" points="123.56,402 179.175,402 182.265,429.807 120.471,429.807 "/>
    <polygon style="fill: none; fill-opacity:0; stroke-width: 3; stroke: #000000" points="123.56,402 179.175,402 182.265,429.807 120.471,429.807 "/>
    <polygon style="fill: none; fill-opacity:0; stroke-width: 0.3; stroke: #000000" points="123.56,402 179.175,402 182.265,429.807 120.471,429.807 "/>
    <rect style="fill: #4c4c4c" x="160.637" y="429.807" width="18.5382" height="3.08971"/>
    <rect style="fill: none; fill-opacity:0; stroke-width: 3; stroke: #000000" x="160.637" y="429.807" width="18.5382" height="3.08971"/>
    <rect style="fill: none; fill-opacity:0; stroke-width: 0.3; stroke: #000000" x="160.637" y="429.807" width="18.5382" height="3.08971"/>
  </g>
  <g>
    <line style="fill: none; fill-opacity:0; stroke-width: 3; stroke: #000000" x1="151" y1="337" x2="151.33" y2="395.292"/>
    <polyline style="fill: none; fill-opacity:0; stroke-width: 3; stroke: #000000" points="146.292,388.674 151.349,398.646 156.292,388.618 "/>
  </g>
  <text font-size="12.8" style="fill: #000000;text-anchor:start;font-family:sans-serif;font-style:normal;font-weight:normal" x="201" y="415">
    <tspan x="201" y="415">resulting </tspan>
    <tspan x="201" y="431">UBL</tspan>
  </text>
  <g>
    <path style="fill: #0096d4" d="M 178.824 589.972 L 143.456,533.488 L 111.722,589.972 L 178.824,589.972z"/>
    <path style="fill: none; fill-opacity:0; stroke-width: 0.06; stroke: #aae6ff" d="M 178.824 589.972 L 143.456,533.488 L 111.916,589.615"/>
    <path style="fill: none; fill-opacity:0; stroke-width: 0.06; stroke: #aae6ff" d="M 111.916 589.972 L 178.824,589.972"/>
    <path style="fill: #005a80" d="M 143.456 533.488 L 151.976,525 L 187.344,581.473 L 178.824,589.356 L 143.456,533.488z"/>
    <path style="fill: none; fill-opacity:0; stroke-width: 0.06; stroke: #aae6ff" d="M 143.456 533.488 L 151.976,525 L 187.344,581.473 L 178.824,589.356 L 143.456,533.488"/>
    <path style="fill: #ffffff" d="M 148.916 550.474 L 148.916,550.247 L 148.884,549.998 L 148.862,549.739 L 148.819,549.512 L 148.743,549.274 L 148.679,549.047 L 148.592,548.787 L 148.495,548.582 L 148.387,548.355 L 148.257,548.149 L 148.138,547.912 L 147.987,547.706 L 147.814,547.533 L 147.673,547.339 L 147.478,547.155 L 147.316,546.971 L 147.1,546.82 L 146.916,546.668 L 146.689,546.517 L 146.484,546.387 L 146.257,546.257 L 146.019,546.149 L 145.77,546.052 L 145.521,545.944 L 145.294,545.879 L 145.035,545.803 L 144.764,545.749 L 144.505,545.706 L 144.256,545.673 L 143.997,545.652 L 143.737,545.652 L 143.737,545.652 L 143.478,545.652 L 143.207,545.673 L 142.948,545.706 L 142.699,545.749 L 142.44,545.803 L 142.18,545.879 L 141.932,545.944 L 141.694,546.052 L 141.456,546.149 L 141.196,546.257 L 140.98,546.387 L 140.775,546.517 L 140.558,546.668 L 140.364,546.82 L 140.158,546.971 L 139.975,547.155 L 139.791,547.339 L 139.629,547.533 L 139.488,547.706 L 139.326,547.912 L 139.207,548.149 L 139.088,548.355 L 138.958,548.582 L 138.882,548.787 L 138.796,549.047 L 138.72,549.274 L 138.655,549.512 L 138.601,549.739 L 138.591,549.998 L 138.547,550.247 L 138.547,550.474 L 138.547,550.474 L 138.547,550.734 L 138.591,550.961 L 138.601,551.22 L 138.655,551.469 L 138.72,551.696 L 138.796,551.934 L 138.882,552.161 L 138.958,552.399 L 139.088,552.626 L 139.207,552.831 L 139.326,553.048 L 139.488,553.253 L 139.629,553.448 L 139.791,553.642 L 139.975,553.826 L 140.158,553.988 L 140.364,554.14 L 140.558,554.313 L 140.775,554.464 L 140.98,554.583 L 141.196,554.723 L 141.456,554.832 L 141.694,554.929 L 141.932,555.037 L 142.18,555.102 L 142.44,555.167 L 142.699,555.21 L 142.948,555.275 L 143.207,555.307 L 143.478,555.329 L 143.737,555.329 L 143.737,555.329 L 143.997,555.329 L 144.256,555.307 L 144.505,555.275 L 144.764,555.21 L 145.035,555.167 L 145.294,555.102 L 145.521,555.037 L 145.77,554.929 L 146.019,554.832 L 146.257,554.723 L 146.484,554.583 L 146.689,554.464 L 146.916,554.313 L 147.1,554.14 L 147.316,553.988 L 147.478,553.826 L 147.673,553.642 L 147.814,553.448 L 147.987,553.253 L 148.138,553.048 L 148.257,552.831 L 148.387,552.626 L 148.495,552.399 L 148.592,552.161 L 148.679,551.934 L 148.743,551.696 L 148.819,551.469 L 148.862,551.22 L 148.884,550.961 L 148.916,550.734 L 148.916,550.474z"/>
    <path style="fill: #ffffff" d="M 161.708 581.149 L 161.708,580.89 L 161.686,580.63 L 161.654,580.371 L 161.599,580.111 L 161.535,579.852 L 161.47,579.592 L 161.394,579.354 L 161.308,579.116 L 161.189,578.857 L 161.102,578.619 L 160.962,578.403 L 160.821,578.197 L 160.68,577.981 L 160.518,577.776 L 160.356,577.581 L 160.172,577.408 L 160.01,577.224 L 159.815,577.062 L 159.61,576.911 L 159.405,576.759 L 159.199,576.629 L 158.961,576.511 L 158.745,576.392 L 158.529,576.305 L 158.28,576.219 L 158.053,576.154 L 157.815,576.089 L 157.577,576.035 L 157.329,576.013 L 157.069,575.981 L 156.831,575.981 L 156.831,575.981 L 156.593,575.981 L 156.323,576.013 L 156.085,576.035 L 155.847,576.089 L 155.609,576.154 L 155.371,576.219 L 155.134,576.305 L 154.907,576.392 L 154.69,576.511 L 154.463,576.629 L 154.258,576.759 L 154.052,576.911 L 153.847,577.062 L 153.652,577.224 L 153.479,577.408 L 153.306,577.581 L 153.133,577.776 L 152.982,577.981 L 152.841,578.197 L 152.701,578.403 L 152.549,578.619 L 152.463,578.857 L 152.344,579.116 L 152.268,579.354 L 152.182,579.592 L 152.117,579.852 L 152.063,580.111 L 151.998,580.371 L 151.976,580.63 L 151.955,580.89 L 151.955,581.149 L 151.955,581.149 L 151.955,581.398 L 151.976,581.657 L 151.998,581.917 L 152.063,582.176 L 152.117,582.436 L 152.182,582.695 L 152.268,582.933 L 152.344,583.171 L 152.463,583.42 L 152.549,583.658 L 152.701,583.885 L 152.841,584.09 L 152.982,584.296 L 153.133,584.501 L 153.306,584.706 L 153.479,584.879 L 153.652,585.074 L 153.847,585.225 L 154.052,585.377 L 154.258,585.539 L 154.463,585.647 L 154.69,585.777 L 154.907,585.885 L 155.134,585.982 L 155.371,586.069 L 155.609,586.134 L 155.847,586.209 L 156.085,586.253 L 156.323,586.274 L 156.593,586.307 L 156.831,586.307 L 156.831,586.307 L 157.069,586.307 L 157.329,586.274 L 157.577,586.253 L 157.815,586.209 L 158.053,586.134 L 158.28,586.069 L 158.529,585.982 L 158.745,585.885 L 158.961,585.777 L 159.199,585.647 L 159.405,585.539 L 159.61,585.377 L 159.815,585.225 L 160.01,585.074 L 160.172,584.879 L 160.356,584.706 L 160.518,584.501 L 160.68,584.296 L 160.821,584.09 L 160.962,583.885 L 161.102,583.658 L 161.189,583.42 L 161.308,583.171 L 161.394,582.933 L 161.47,582.695 L 161.535,582.436 L 161.599,582.176 L 161.654,581.917 L 161.686,581.657 L 161.708,581.398 L 161.708,581.149z"/>
    <path style="fill: #ffffff" d="M 135.444 581.149 L 135.444,580.89 L 135.444,580.63 L 135.412,580.371 L 135.358,580.111 L 135.304,579.852 L 135.239,579.592 L 135.163,579.354 L 135.066,579.116 L 134.958,578.857 L 134.839,578.619 L 134.709,578.403 L 134.601,578.197 L 134.428,577.981 L 134.287,577.776 L 134.125,577.581 L 133.952,577.408 L 133.757,577.224 L 133.574,577.062 L 133.39,576.911 L 133.174,576.759 L 132.946,576.629 L 132.741,576.511 L 132.525,576.392 L 132.298,576.305 L 132.06,576.219 L 131.8,576.154 L 131.584,576.089 L 131.346,576.035 L 131.087,576.013 L 130.838,575.981 L 130.6,575.981 L 130.6,575.981 L 130.362,575.981 L 130.114,576.013 L 129.865,576.035 L 129.616,576.089 L 129.4,576.154 L 129.151,576.219 L 128.913,576.305 L 128.676,576.392 L 128.459,576.511 L 128.254,576.629 L 128.016,576.759 L 127.811,576.911 L 127.638,577.062 L 127.443,577.224 L 127.248,577.408 L 127.064,577.581 L 126.924,577.776 L 126.773,577.981 L 126.6,578.197 L 126.491,578.403 L 126.351,578.619 L 126.243,578.857 L 126.145,579.116 L 126.048,579.354 L 125.972,579.592 L 125.908,579.852 L 125.843,580.111 L 125.789,580.371 L 125.767,580.63 L 125.745,580.89 L 125.745,581.149 L 125.745,581.149 L 125.745,581.398 L 125.767,581.657 L 125.789,581.917 L 125.843,582.176 L 125.908,582.436 L 125.972,582.695 L 126.048,582.933 L 126.145,583.171 L 126.243,583.42 L 126.351,583.658 L 126.491,583.885 L 126.6,584.09 L 126.773,584.296 L 126.924,584.501 L 127.064,584.706 L 127.248,584.879 L 127.443,585.074 L 127.638,585.225 L 127.811,585.377 L 128.016,585.539 L 128.254,585.647 L 128.459,585.777 L 128.676,585.885 L 128.913,585.982 L 129.151,586.069 L 129.4,586.134 L 129.616,586.209 L 129.865,586.253 L 130.114,586.274 L 130.362,586.307 L 130.6,586.307 L 130.6,586.307 L 130.838,586.307 L 131.087,586.274 L 131.346,586.253 L 131.584,586.209 L 131.8,586.134 L 132.06,586.069 L 132.298,585.982 L 132.525,585.885 L 132.741,585.777 L 132.946,585.647 L 133.174,585.539 L 133.39,585.377 L 133.574,585.225 L 133.757,585.074 L 133.952,584.879 L 134.125,584.706 L 134.287,584.501 L 134.428,584.296 L 134.601,584.09 L 134.709,583.885 L 134.839,583.658 L 134.958,583.42 L 135.066,583.171 L 135.163,582.933 L 135.239,582.695 L 135.304,582.436 L 135.358,582.176 L 135.412,581.917 L 135.444,581.657 L 135.444,581.398 L 135.444,581.149z"/>
    <path style="fill: #ffffff" d="M 148.916 568.077 L 148.916,567.839 L 148.884,567.569 L 148.862,567.331 L 148.819,567.104 L 148.743,566.855 L 148.679,566.639 L 148.592,566.39 L 148.495,566.174 L 148.387,565.947 L 148.257,565.709 L 148.138,565.514 L 147.987,565.309 L 147.814,565.103 L 147.673,564.898 L 147.478,564.736 L 147.316,564.563 L 147.1,564.401 L 146.916,564.238 L 146.689,564.109 L 146.484,563.968 L 146.257,563.828 L 146.019,563.719 L 145.77,563.622 L 145.521,563.525 L 145.294,563.449 L 145.035,563.384 L 144.764,563.319 L 144.505,563.276 L 144.256,563.244 L 143.997,563.222 L 143.737,563.222 L 143.737,563.222 L 143.478,563.222 L 143.207,563.244 L 142.948,563.276 L 142.699,563.319 L 142.44,563.384 L 142.18,563.449 L 141.932,563.525 L 141.694,563.622 L 141.456,563.719 L 141.196,563.828 L 140.98,563.968 L 140.775,564.109 L 140.558,564.238 L 140.364,564.401 L 140.158,564.563 L 139.975,564.736 L 139.791,564.898 L 139.629,565.103 L 139.488,565.309 L 139.326,565.514 L 139.207,565.709 L 139.088,565.947 L 138.958,566.174 L 138.882,566.39 L 138.796,566.639 L 138.72,566.855 L 138.655,567.104 L 138.601,567.331 L 138.591,567.569 L 138.547,567.839 L 138.547,568.077 L 138.547,568.077 L 138.547,568.315 L 138.591,568.574 L 138.601,568.823 L 138.655,569.061 L 138.72,569.299 L 138.796,569.526 L 138.882,569.764 L 138.958,569.991 L 139.088,570.207 L 139.207,570.434 L 139.326,570.639 L 139.488,570.856 L 139.629,571.05 L 139.791,571.245 L 139.975,571.418 L 140.158,571.591 L 140.364,571.764 L 140.558,571.915 L 140.775,572.056 L 140.98,572.196 L 141.196,572.337 L 141.456,572.434 L 141.694,572.542 L 141.932,572.629 L 142.18,572.715 L 142.44,572.78 L 142.699,572.834 L 142.948,572.878 L 143.207,572.91 L 143.478,572.932 L 143.737,572.932 L 143.737,572.932 L 143.997,572.932 L 144.256,572.91 L 144.505,572.878 L 144.764,572.834 L 145.035,572.78 L 145.294,572.715 L 145.521,572.629 L 145.77,572.542 L 146.019,572.434 L 146.257,572.337 L 146.484,572.196 L 146.689,572.056 L 146.916,571.915 L 147.1,571.764 L 147.316,571.591 L 147.478,571.418 L 147.673,571.245 L 147.814,571.05 L 147.987,570.856 L 148.138,570.639 L 148.257,570.434 L 148.387,570.207 L 148.495,569.991 L 148.592,569.764 L 148.679,569.526 L 148.743,569.299 L 148.819,569.061 L 148.862,568.823 L 148.884,568.574 L 148.916,568.315 L 148.916,568.077z"/>
    <path style="fill: #ffffff" d="M 142.234 549.879 L 142.234,565.676 L 144.667,565.676 L 144.667,549.879 L 142.234,549.879z"/>
    <path style="fill: #ffffff" d="M 143.456 569.926 L 154.409,581.473 L 156.226,579.646 L 145.273,568.109 L 143.456,569.926z"/>
    <path style="fill: #ffffff" d="M 131.844 581.473 L 142.84,569.926 L 140.991,568.109 L 130.027,579.646 L 131.844,581.473z"/>
  </g>
  <g>
    <polygon style="fill: #ffffff" points="108.6,645.6 108.6,730.6 186.6,730.6 186.6,645.6 "/>
    <rect style="fill: none; fill-opacity:0; stroke-width: 3; stroke: #0000ff" x="108.6" y="645.6" width="78" height="85"/>
    <path style="fill: none; fill-opacity:0; stroke-width: 3; stroke: #0000ff" d="M 147.6 659.767 C 121.6,659.767 173.6,716.433 147.6,716.433 C 121.6,716.433 173.6,659.767 147.6,659.767"/>
  </g>
  <g>
    <line style="fill: none; fill-opacity:0; stroke-width: 3; stroke: #008000" x1="147" y1="594" x2="147.277" y2="637.42"/>
    <polyline style="fill: none; fill-opacity:0; stroke-width: 3; stroke: #008000" points="142.235,630.807 147.298,640.774 152.234,630.743 "/>
  </g>
  <text font-size="12.8" style="fill: #000000;text-anchor:start;font-family:sans-serif;font-style:normal;font-weight:normal" x="200.1" y="651">
    <tspan x="200.1" y="651">lichen </tspan>
    <tspan x="200.1" y="667">(or equivalent)</tspan>
  </text>
  <g>
    <path style="fill: #ffe9aa" d="M 644.56 417.68 L 644.521,416.408 L 644.385,415.136 L 644.132,413.887 L 643.781,412.638 L 643.313,411.366 L 642.787,410.139 L 642.124,408.956 L 641.384,407.751 L 640.585,406.591 L 639.649,405.453 L 638.655,404.36 L 637.564,403.289 L 636.375,402.263 L 635.128,401.281 L 633.803,400.322 L 632.38,399.407 L 630.918,398.537 L 629.398,397.734 L 627.8,396.998 L 626.143,396.284 L 624.428,395.614 L 622.655,395.034 L 620.881,394.499 L 619.03,394.03 L 617.139,393.629 L 615.249,393.249 L 613.32,392.959 L 611.371,392.736 L 609.402,392.58 L 607.414,392.491 L 605.427,392.446 L 605.427,392.446 L 603.458,392.491 L 601.451,392.58 L 599.502,392.736 L 597.553,392.959 L 595.604,393.249 L 593.714,393.629 L 591.823,394.03 L 589.991,394.499 L 588.179,395.034 L 586.444,395.614 L 584.729,396.284 L 583.092,396.998 L 581.475,397.734 L 579.955,398.537 L 578.473,399.407 L 577.051,400.322 L 575.725,401.281 L 574.478,402.263 L 573.289,403.289 L 572.198,404.36 L 571.204,405.453 L 570.288,406.591 L 569.45,407.751 L 568.748,408.956 L 568.086,410.139 L 567.54,411.366 L 567.072,412.638 L 566.761,413.887 L 566.507,415.136 L 566.332,416.408 L 566.312,417.68 L 566.312,417.68 L 566.332,418.952 L 566.507,420.268 L 566.761,421.517 L 567.072,422.789 L 567.54,424.038 L 568.086,425.266 L 568.748,426.448 L 569.45,427.653 L 570.288,428.813 L 571.204,429.929 L 572.198,431.044 L 573.289,432.115 L 574.478,433.119 L 575.725,434.123 L 577.051,435.082 L 578.473,435.997 L 579.955,436.845 L 581.475,437.626 L 583.092,438.429 L 584.729,439.121 L 586.444,439.768 L 588.179,440.37 L 589.991,440.905 L 591.823,441.352 L 593.714,441.776 L 595.604,442.133 L 597.553,442.423 L 599.502,442.623 L 601.451,442.824 L 603.458,442.891 L 605.427,442.913 L 605.427,442.913 L 607.414,442.891 L 609.402,442.824 L 611.371,442.623 L 613.32,442.423 L 615.249,442.133 L 617.139,441.776 L 619.03,441.352 L 620.881,440.905 L 622.655,440.37 L 624.428,439.768 L 626.143,439.121 L 627.8,438.429 L 629.398,437.626 L 630.918,436.845 L 632.38,435.997 L 633.803,435.082 L 635.128,434.123 L 636.375,433.119 L 637.564,432.115 L 638.655,431.044 L 639.649,429.929 L 640.585,428.813 L 641.384,427.653 L 642.124,426.448 L 642.787,425.266 L 643.313,424.038 L 643.781,422.789 L 644.132,421.517 L 644.385,420.268 L 644.521,418.952 L 644.56,417.68z"/>
    <path style="fill: #ffe9aa" d="M 583.229 430.933 L 583.19,429.661 L 583.053,428.389 L 582.897,427.14 L 582.625,425.868 L 582.274,424.619 L 581.845,423.391 L 581.338,422.187 L 580.793,421.004 L 580.169,419.844 L 579.467,418.706 L 578.707,417.613 L 577.869,416.542 L 576.934,415.516 L 575.979,414.489 L 574.965,413.575 L 573.874,412.66 L 572.783,411.79 L 571.574,410.987 L 570.366,410.228 L 569.08,409.536 L 567.793,408.867 L 566.449,408.287 L 565.045,407.751 L 563.642,407.283 L 562.2,406.881 L 560.738,406.502 L 559.257,406.212 L 557.757,406.011 L 556.275,405.833 L 554.755,405.744 L 553.235,405.699 L 553.235,405.699 L 551.715,405.744 L 550.195,405.833 L 548.675,406.011 L 547.194,406.212 L 545.693,406.502 L 544.231,406.881 L 542.809,407.283 L 541.405,407.751 L 540.022,408.287 L 538.677,408.867 L 537.352,409.536 L 536.104,410.228 L 534.857,410.987 L 533.688,411.79 L 532.577,412.66 L 531.485,413.575 L 530.472,414.489 L 529.498,415.516 L 528.582,416.542 L 527.763,417.613 L 526.984,418.706 L 526.301,419.844 L 525.658,421.004 L 525.093,422.187 L 524.606,423.391 L 524.177,424.619 L 523.826,425.868 L 523.573,427.14 L 523.378,428.389 L 523.261,429.661 L 523.222,430.933 L 523.222,430.933 L 523.261,432.227 L 523.378,433.521 L 523.573,434.77 L 523.826,436.019 L 524.177,437.291 L 524.606,438.474 L 525.093,439.701 L 525.658,440.905 L 526.301,442.066 L 526.984,443.181 L 527.763,444.297 L 528.582,445.368 L 529.498,446.372 L 530.472,447.376 L 531.485,448.335 L 532.577,449.205 L 533.688,450.098 L 534.857,450.878 L 536.104,451.682 L 537.352,452.373 L 538.677,453.02 L 540.022,453.623 L 541.405,454.136 L 542.809,454.604 L 544.231,455.028 L 545.693,455.385 L 547.194,455.675 L 548.675,455.876 L 550.195,456.032 L 551.715,456.144 L 553.235,456.166 L 553.235,456.166 L 554.755,456.144 L 556.275,456.032 L 557.757,455.876 L 559.257,455.675 L 560.738,455.385 L 562.2,455.028 L 563.642,454.604 L 565.045,454.136 L 566.449,453.623 L 567.793,453.02 L 569.08,452.373 L 570.366,451.682 L 571.574,450.878 L 572.783,450.098 L 573.874,449.205 L 574.965,448.335 L 575.979,447.376 L 576.934,446.372 L 577.869,445.368 L 578.707,444.297 L 579.467,443.181 L 580.169,442.066 L 580.793,440.905 L 581.338,439.701 L 581.845,438.474 L 582.274,437.291 L 582.625,436.019 L 582.897,434.77 L 583.053,433.521 L 583.19,432.227 L 583.229,430.933z"/>
    <path style="fill: #ffe9aa" d="M 545.401 456.679 L 545.381,455.653 L 545.323,454.604 L 545.186,453.578 L 545.011,452.529 L 544.757,451.525 L 544.465,450.521 L 544.153,449.54 L 543.783,448.58 L 543.354,447.621 L 542.867,446.662 L 542.341,445.814 L 541.776,444.921 L 541.172,444.051 L 540.528,443.27 L 539.827,442.49 L 539.106,441.776 L 538.365,441.062 L 537.586,440.392 L 536.748,439.79 L 535.89,439.21 L 535.013,438.674 L 534.097,438.184 L 533.181,437.737 L 532.226,437.358 L 531.252,437.023 L 530.277,436.756 L 529.283,436.488 L 528.25,436.332 L 527.237,436.198 L 526.243,436.131 L 525.21,436.086 L 525.21,436.086 L 524.177,436.131 L 523.144,436.198 L 522.131,436.332 L 521.137,436.488 L 520.123,436.756 L 519.129,437.023 L 518.175,437.358 L 517.239,437.737 L 516.284,438.184 L 515.368,438.674 L 514.491,439.21 L 513.634,439.79 L 512.815,440.392 L 512.016,441.062 L 511.275,441.776 L 510.554,442.49 L 509.872,443.27 L 509.21,444.051 L 508.605,444.921 L 508.04,445.814 L 507.514,446.662 L 507.066,447.621 L 506.637,448.58 L 506.267,449.54 L 505.916,450.521 L 505.624,451.525 L 505.409,452.529 L 505.234,453.578 L 505.078,454.604 L 505,455.653 L 505,456.679 L 505,456.679 L 505,457.706 L 505.078,458.777 L 505.234,459.781 L 505.409,460.829 L 505.624,461.855 L 505.916,462.837 L 506.267,463.819 L 506.637,464.778 L 507.066,465.76 L 507.514,466.697 L 508.04,467.567 L 508.605,468.437 L 509.21,469.285 L 509.872,470.088 L 510.554,470.869 L 511.275,471.605 L 512.016,472.319 L 512.815,472.966 L 513.634,473.569 L 514.491,474.149 L 515.368,474.684 L 516.284,475.175 L 517.239,475.621 L 518.175,475.978 L 519.129,476.335 L 520.123,476.625 L 521.137,476.871 L 522.131,477.049 L 523.144,477.161 L 524.177,477.228 L 525.21,477.272 L 525.21,477.272 L 526.243,477.228 L 527.237,477.161 L 528.25,477.049 L 529.283,476.871 L 530.277,476.625 L 531.252,476.335 L 532.226,475.978 L 533.181,475.621 L 534.097,475.175 L 535.013,474.684 L 535.89,474.149 L 536.748,473.569 L 537.586,472.966 L 538.365,472.319 L 539.106,471.605 L 539.827,470.869 L 540.528,470.088 L 541.172,469.285 L 541.776,468.437 L 542.341,467.567 L 542.867,466.697 L 543.354,465.76 L 543.783,464.778 L 544.153,463.819 L 544.465,462.837 L 544.757,461.855 L 545.011,460.829 L 545.186,459.781 L 545.323,458.777 L 545.381,457.706 L 545.401,456.679z"/>
    <path style="fill: #ffe9aa" d="M 578.025 476.514 L 578.006,475.398 L 577.869,474.26 L 577.655,473.145 L 577.401,472.029 L 577.051,470.936 L 576.641,469.843 L 576.115,468.794 L 575.57,467.723 L 574.907,466.719 L 574.205,465.738 L 573.406,464.756 L 572.568,463.819 L 571.672,462.859 L 570.697,461.989 L 569.664,461.164 L 568.573,460.361 L 567.423,459.624 L 566.215,458.91 L 564.987,458.241 L 563.701,457.616 L 562.356,457.059 L 560.992,456.523 L 559.589,456.032 L 558.166,455.608 L 556.704,455.274 L 555.204,454.961 L 553.722,454.694 L 552.202,454.471 L 550.682,454.337 L 549.142,454.27 L 547.583,454.225 L 547.583,454.225 L 546.044,454.27 L 544.524,454.337 L 542.964,454.471 L 541.464,454.694 L 539.944,454.961 L 538.482,455.274 L 537.02,455.608 L 535.578,456.032 L 534.175,456.523 L 532.83,457.059 L 531.485,457.616 L 530.199,458.241 L 528.952,458.91 L 527.763,459.624 L 526.613,460.361 L 525.522,461.164 L 524.489,461.989 L 523.515,462.859 L 522.599,463.819 L 521.761,464.756 L 520.961,465.738 L 520.24,466.719 L 519.617,467.723 L 519.052,468.794 L 518.525,469.843 L 518.097,470.936 L 517.785,472.029 L 517.492,473.145 L 517.298,474.26 L 517.181,475.398 L 517.142,476.514 L 517.142,476.514 L 517.181,477.652 L 517.298,478.767 L 517.492,479.927 L 517.785,481.043 L 518.097,482.114 L 518.525,483.185 L 519.052,484.278 L 519.617,485.327 L 520.24,486.353 L 520.961,487.357 L 521.761,488.338 L 522.599,489.276 L 523.515,490.213 L 524.489,491.105 L 525.522,491.908 L 526.613,492.689 L 527.763,493.47 L 528.952,494.184 L 530.199,494.853 L 531.485,495.478 L 532.83,496.036 L 534.175,496.571 L 535.578,497.017 L 537.02,497.441 L 538.482,497.821 L 539.944,498.111 L 541.464,498.378 L 542.964,498.601 L 544.524,498.713 L 546.044,498.825 L 547.583,498.825 L 547.583,498.825 L 549.142,498.825 L 550.682,498.713 L 552.202,498.601 L 553.722,498.378 L 555.204,498.111 L 556.704,497.821 L 558.166,497.441 L 559.589,497.017 L 560.992,496.571 L 562.356,496.036 L 563.701,495.478 L 564.987,494.853 L 566.215,494.184 L 567.423,493.47 L 568.573,492.689 L 569.664,491.908 L 570.697,491.083 L 571.672,490.168 L 572.568,489.276 L 573.406,488.338 L 574.205,487.357 L 574.907,486.353 L 575.57,485.327 L 576.115,484.278 L 576.641,483.185 L 577.051,482.114 L 577.401,481.043 L 577.655,479.927 L 577.869,478.767 L 578.006,477.652 L 578.025,476.514z"/>
    <path style="fill: #ffe9aa" d="M 651.089 488.048 L 651.011,486.71 L 650.855,485.371 L 650.544,484.032 L 650.134,482.738 L 649.628,481.4 L 649.004,480.128 L 648.263,478.856 L 647.406,477.607 L 646.431,476.38 L 645.379,475.22 L 644.19,474.059 L 642.943,472.899 L 641.579,471.851 L 640.136,470.802 L 638.558,469.798 L 636.96,468.839 L 635.245,467.969 L 633.452,467.121 L 631.62,466.318 L 629.671,465.581 L 627.702,464.912 L 625.656,464.265 L 623.571,463.707 L 621.408,463.239 L 619.244,462.792 L 617.023,462.413 L 614.801,462.123 L 612.501,461.878 L 610.26,461.722 L 607.941,461.588 L 605.641,461.588 L 605.641,461.588 L 603.341,461.588 L 601.042,461.722 L 598.761,461.878 L 596.501,462.123 L 594.24,462.413 L 592.038,462.792 L 589.855,463.239 L 587.731,463.707 L 585.606,464.265 L 583.599,464.912 L 581.592,465.581 L 579.682,466.318 L 577.83,467.121 L 576.057,467.969 L 574.342,468.839 L 572.705,469.798 L 571.165,470.802 L 569.723,471.851 L 568.339,472.899 L 567.072,474.059 L 565.903,475.22 L 564.87,476.38 L 563.896,477.607 L 563.038,478.856 L 562.298,480.128 L 561.654,481.4 L 561.148,482.738 L 560.719,484.032 L 560.427,485.371 L 560.251,486.71 L 560.193,488.048 L 560.193,488.048 L 560.251,489.365 L 560.427,490.726 L 560.719,492.064 L 561.148,493.381 L 561.654,494.697 L 562.298,495.991 L 563.038,497.241 L 563.896,498.49 L 564.87,499.717 L 565.903,500.9 L 567.072,502.037 L 568.339,503.153 L 569.723,504.246 L 571.165,505.295 L 572.705,506.299 L 574.342,507.213 L 576.057,508.151 L 577.83,508.998 L 579.682,509.779 L 581.592,510.516 L 583.599,511.207 L 585.606,511.787 L 587.731,512.367 L 589.855,512.88 L 592.038,513.327 L 594.24,513.684 L 596.501,513.996 L 598.761,514.219 L 601.042,514.398 L 603.341,514.509 L 605.641,514.531 L 605.641,514.531 L 607.941,514.509 L 610.26,514.398 L 612.501,514.219 L 614.801,513.996 L 617.023,513.684 L 619.244,513.327 L 621.408,512.88 L 623.571,512.367 L 625.656,511.787 L 627.702,511.207 L 629.671,510.516 L 631.62,509.779 L 633.452,508.998 L 635.245,508.151 L 636.96,507.213 L 638.558,506.299 L 640.136,505.295 L 641.579,504.246 L 642.943,503.153 L 644.19,502.037 L 645.379,500.9 L 646.431,499.717 L 647.406,498.49 L 648.263,497.241 L 649.004,495.991 L 649.628,494.697 L 650.134,493.381 L 650.544,492.064 L 650.855,490.726 L 651.011,489.365 L 651.089,488.048z"/>
    <path style="fill: #ffe9aa" d="M 676.308 427.006 L 676.288,426.024 L 676.172,425.02 L 675.957,424.016 L 675.723,423.034 L 675.372,422.053 L 674.983,421.093 L 674.495,420.134 L 673.93,419.175 L 673.326,418.282 L 672.663,417.367 L 671.903,416.52 L 671.085,415.672 L 670.227,414.869 L 669.272,414.065 L 668.298,413.329 L 667.226,412.638 L 666.135,411.924 L 665.004,411.321 L 663.796,410.697 L 662.568,410.139 L 661.321,409.648 L 659.996,409.179 L 658.651,408.755 L 657.287,408.399 L 655.883,408.042 L 654.48,407.774 L 653.038,407.573 L 651.596,407.372 L 650.115,407.238 L 648.653,407.194 L 647.172,407.171 L 647.172,407.171 L 645.671,407.194 L 644.21,407.238 L 642.728,407.372 L 641.286,407.573 L 639.864,407.774 L 638.441,408.042 L 637.057,408.399 L 635.673,408.755 L 634.329,409.179 L 633.003,409.648 L 631.737,410.139 L 630.528,410.697 L 629.32,411.321 L 628.19,411.924 L 627.098,412.638 L 626.046,413.329 L 625.052,414.065 L 624.097,414.869 L 623.239,415.672 L 622.44,416.52 L 621.661,417.367 L 620.998,418.282 L 620.394,419.175 L 619.829,420.134 L 619.342,421.093 L 618.952,422.053 L 618.621,423.034 L 618.348,424.016 L 618.172,425.02 L 618.075,426.024 L 618.016,427.006 L 618.016,427.006 L 618.075,428.01 L 618.172,428.991 L 618.348,430.018 L 618.621,430.999 L 618.952,432.003 L 619.342,432.963 L 619.829,433.922 L 620.394,434.815 L 620.998,435.774 L 621.661,436.644 L 622.44,437.492 L 623.239,438.362 L 624.097,439.143 L 625.052,439.946 L 626.046,440.682 L 627.098,441.396 L 628.19,442.066 L 629.32,442.713 L 630.528,443.315 L 631.737,443.873 L 633.003,444.386 L 634.329,444.855 L 635.673,445.256 L 637.057,445.635 L 638.441,445.97 L 639.864,446.238 L 641.286,446.461 L 642.728,446.662 L 644.21,446.773 L 645.671,446.818 L 647.172,446.885 L 647.172,446.885 L 648.653,446.818 L 650.115,446.773 L 651.596,446.662 L 653.038,446.461 L 654.48,446.238 L 655.883,445.97 L 657.287,445.635 L 658.651,445.256 L 659.996,444.855 L 661.321,444.386 L 662.568,443.873 L 663.796,443.315 L 665.004,442.713 L 666.135,442.066 L 667.226,441.396 L 668.298,440.682 L 669.272,439.946 L 670.227,439.143 L 671.085,438.362 L 671.903,437.492 L 672.663,436.644 L 673.326,435.774 L 673.93,434.815 L 674.495,433.922 L 674.983,432.963 L 675.372,432.003 L 675.723,430.999 L 675.957,430.018 L 676.172,428.991 L 676.288,428.01 L 676.308,427.006z"/>
    <path style="fill: #ffe9aa" d="M 684.571 452.507 L 684.513,451.525 L 684.435,450.521 L 684.24,449.518 L 683.987,448.514 L 683.636,447.51 L 683.246,446.55 L 682.778,445.613 L 682.213,444.698 L 681.609,443.761 L 680.946,442.891 L 680.186,442.021 L 679.368,441.196 L 678.53,440.392 L 677.575,439.567 L 676.6,438.853 L 675.587,438.139 L 674.495,437.447 L 673.326,436.845 L 672.176,436.22 L 670.948,435.662 L 669.701,435.172 L 668.395,434.681 L 667.07,434.279 L 665.706,433.922 L 664.303,433.565 L 662.9,433.297 L 661.477,433.074 L 660.015,432.874 L 658.573,432.784 L 657.111,432.717 L 655.65,432.673 L 655.65,432.673 L 654.168,432.717 L 652.726,432.784 L 651.265,432.874 L 649.842,433.074 L 648.419,433.297 L 646.997,433.565 L 645.613,433.922 L 644.268,434.279 L 642.923,434.681 L 641.618,435.172 L 640.37,435.662 L 639.142,436.22 L 637.954,436.845 L 636.843,437.447 L 635.751,438.139 L 634.68,438.853 L 633.705,439.567 L 632.789,440.392 L 631.951,441.196 L 631.133,442.021 L 630.392,442.891 L 629.69,443.761 L 629.086,444.698 L 628.56,445.613 L 628.073,446.55 L 627.644,447.51 L 627.332,448.514 L 627.079,449.518 L 626.884,450.521 L 626.767,451.525 L 626.748,452.507 L 626.748,452.507 L 626.767,453.489 L 626.884,454.493 L 627.079,455.519 L 627.332,456.501 L 627.644,457.505 L 628.073,458.464 L 628.56,459.424 L 629.086,460.316 L 629.69,461.253 L 630.392,462.145 L 631.133,462.993 L 631.951,463.819 L 632.789,464.644 L 633.705,465.447 L 634.68,466.184 L 635.751,466.875 L 636.843,467.567 L 637.954,468.169 L 639.142,468.794 L 640.37,469.352 L 641.618,469.843 L 642.923,470.334 L 644.268,470.757 L 645.613,471.092 L 646.997,471.449 L 648.419,471.717 L 649.842,471.94 L 651.265,472.141 L 652.726,472.252 L 654.168,472.319 L 655.65,472.342 L 655.65,472.342 L 657.111,472.319 L 658.573,472.252 L 660.015,472.141 L 661.477,471.94 L 662.9,471.717 L 664.303,471.449 L 665.706,471.092 L 667.07,470.757 L 668.395,470.334 L 669.701,469.843 L 670.948,469.352 L 672.176,468.794 L 673.326,468.169 L 674.495,467.567 L 675.587,466.875 L 676.6,466.184 L 677.575,465.447 L 678.53,464.644 L 679.368,463.819 L 680.186,462.993 L 680.946,462.145 L 681.609,461.253 L 682.213,460.316 L 682.778,459.424 L 683.246,458.464 L 683.636,457.505 L 683.987,456.501 L 684.24,455.519 L 684.435,454.493 L 684.513,453.489 L 684.571,452.507z"/>
    <path style="fill: #ffe9aa" d="M 678.919 473.591 L 678.88,471.94 L 678.764,470.311 L 678.608,468.683 L 678.354,467.032 L 678.023,465.425 L 677.614,463.819 L 677.146,462.279 L 676.581,460.74 L 675.977,459.245 L 675.333,457.795 L 674.593,456.367 L 673.774,454.984 L 672.917,453.645 L 671.981,452.373 L 671.007,451.124 L 669.994,449.986 L 668.902,448.87 L 667.791,447.844 L 666.602,446.84 L 665.394,445.948 L 664.147,445.122 L 662.88,444.364 L 661.555,443.672 L 660.21,443.025 L 658.807,442.49 L 657.423,442.066 L 655.981,441.664 L 654.558,441.374 L 653.136,441.196 L 651.693,441.062 L 650.232,441.017 L 650.232,441.017 L 648.77,441.062 L 647.328,441.196 L 645.866,441.374 L 644.443,441.664 L 643.04,442.066 L 641.618,442.49 L 640.253,443.025 L 638.909,443.672 L 637.583,444.364 L 636.278,445.122 L 635.03,445.948 L 633.822,446.84 L 632.672,447.844 L 631.522,448.87 L 630.45,449.986 L 629.417,451.124 L 628.443,452.373 L 627.527,453.645 L 626.65,454.984 L 625.871,456.367 L 625.13,457.795 L 624.448,459.245 L 623.844,460.74 L 623.317,462.279 L 622.85,463.819 L 622.44,465.425 L 622.109,467.032 L 621.856,468.683 L 621.661,470.311 L 621.544,471.94 L 621.505,473.591 L 621.505,473.591 L 621.544,475.242 L 621.661,476.915 L 621.856,478.544 L 622.109,480.15 L 622.44,481.779 L 622.85,483.341 L 623.317,484.903 L 623.844,486.442 L 624.448,487.937 L 625.13,489.432 L 625.871,490.86 L 626.65,492.221 L 627.527,493.537 L 628.443,494.809 L 629.417,496.036 L 630.45,497.241 L 631.522,498.356 L 632.672,499.382 L 633.822,500.342 L 635.03,501.256 L 636.278,502.104 L 637.583,502.863 L 638.909,503.555 L 640.253,504.179 L 641.618,504.692 L 643.04,505.161 L 644.443,505.518 L 645.866,505.808 L 647.328,506.031 L 648.77,506.165 L 650.232,506.21 L 650.232,506.21 L 651.693,506.165 L 653.136,506.031 L 654.558,505.808 L 655.981,505.518 L 657.423,505.161 L 658.807,504.692 L 660.21,504.179 L 661.555,503.555 L 662.88,502.863 L 664.147,502.104 L 665.394,501.256 L 666.602,500.342 L 667.791,499.382 L 668.902,498.356 L 669.994,497.241 L 671.007,496.036 L 671.981,494.809 L 672.917,493.537 L 673.774,491.083 L 674.593,490.86 L 675.333,489.432 L 675.977,487.937 L 676.581,486.442 L 677.146,484.903 L 677.614,483.341 L 678.023,481.779 L 678.354,480.15 L 678.608,478.544 L 678.764,476.915 L 678.88,475.242 L 678.919,473.591z"/>
    <path style="fill: #ffe9aa" d="M 654.129 453.98 L 654.052,452.329 L 653.818,450.678 L 653.447,449.027 L 652.941,447.398 L 652.278,445.814 L 651.46,444.23 L 650.505,442.646 L 649.394,441.106 L 648.185,439.589 L 646.821,438.161 L 645.301,436.733 L 643.683,435.35 L 641.929,434.011 L 640.058,432.717 L 638.071,431.49 L 636.005,430.33 L 633.803,429.215 L 631.503,428.211 L 629.145,427.207 L 626.67,426.292 L 624.117,425.466 L 621.505,424.708 L 618.835,424.016 L 616.107,423.391 L 613.3,422.856 L 610.455,422.387 L 607.59,422.053 L 604.686,421.718 L 601.763,421.54 L 598.82,421.406 L 595.838,421.383 L 595.838,421.383 L 592.895,421.406 L 589.952,421.54 L 587.029,421.718 L 584.106,422.053 L 581.241,422.387 L 578.395,422.856 L 575.608,423.391 L 572.88,424.016 L 570.171,424.708 L 567.599,425.466 L 565.045,426.292 L 562.551,427.207 L 560.173,428.211 L 557.913,429.215 L 555.691,430.33 L 553.605,431.49 L 551.657,432.717 L 549.766,434.011 L 548.012,435.35 L 546.414,436.733 L 544.894,438.161 L 543.549,439.589 L 542.321,441.106 L 541.191,442.646 L 540.256,444.23 L 539.456,445.814 L 538.755,447.398 L 538.248,449.027 L 537.878,450.678 L 537.644,452.329 L 537.586,453.98 L 537.586,453.98 L 537.644,455.608 L 537.878,457.259 L 538.248,458.91 L 538.755,460.539 L 539.456,462.145 L 540.256,463.707 L 541.191,465.291 L 542.321,466.831 L 543.549,468.348 L 544.894,469.798 L 546.414,471.204 L 548.012,472.587 L 549.766,473.926 L 551.657,475.22 L 553.605,476.447 L 555.691,477.607 L 557.913,478.722 L 560.173,479.726 L 562.551,480.753 L 565.045,481.645 L 567.599,482.471 L 570.171,483.229 L 572.88,483.921 L 575.608,484.546 L 578.395,485.081 L 581.241,485.55 L 584.106,485.884 L 587.029,486.197 L 589.952,486.397 L 592.895,486.531 L 595.838,486.554 L 595.838,486.554 L 598.82,486.531 L 601.763,486.397 L 604.686,486.197 L 607.59,485.884 L 610.455,485.55 L 613.3,485.081 L 616.107,484.546 L 618.835,483.921 L 621.505,483.229 L 624.117,482.471 L 626.67,481.645 L 629.145,480.753 L 631.503,479.726 L 633.803,478.722 L 636.005,477.607 L 638.071,476.447 L 640.058,475.22 L 641.929,473.926 L 643.683,472.587 L 645.301,471.204 L 646.821,469.798 L 648.185,468.348 L 649.394,466.831 L 650.505,465.291 L 651.46,463.707 L 652.278,462.145 L 652.941,460.539 L 653.447,458.91 L 653.818,457.259 L 654.052,455.608 L 654.129,453.98z"/>
    <path style="fill: #ffe9aa" d="M 605.875 417.479 L 644.443,411.834 L 643.956,410.585 L 643.352,409.38 L 642.689,408.153 L 641.89,406.948 L 641.033,405.788 L 640.058,404.673 L 639.045,403.557 L 637.876,402.531 L 636.687,401.482 L 635.401,400.5 L 634.017,399.563 L 632.575,398.693 L 631.055,397.845 L 629.476,397.02 L 627.839,396.284 L 626.143,395.614 L 624.428,394.945 L 622.616,394.387 L 620.784,393.896 L 618.932,393.406 L 617.003,393.004 L 615.074,392.692 L 613.125,392.402 L 611.156,392.223 L 609.168,392.089 L 607.161,392 L 605.173,392 L 603.166,392.022 L 601.159,392.156 L 599.21,392.357 L 597.241,392.58 L 595.292,392.937 L 593.363,393.272 L 591.472,393.74 L 589.641,394.231 L 587.848,394.789 L 586.074,395.414 L 584.359,396.061 L 582.741,396.819 L 581.143,397.578 L 579.604,398.403 L 578.142,399.273 L 576.758,400.21 L 575.453,401.192 L 574.205,402.174 L 573.036,403.267 L 571.945,404.338 L 570.951,405.476 L 570.093,406.614 L 569.255,407.774 L 568.534,409.001 L 567.93,410.228 L 567.423,411.477 L 566.994,412.727 L 605.875,417.479z"/>
    <path style="fill: none; fill-opacity:0; stroke-width: 0.03; stroke: #805d00" d="M 644.443 411.79 L 643.937,410.54 L 643.352,409.313 L 642.67,408.108 L 641.89,406.926 L 640.994,405.766 L 640.039,404.65 L 639.006,403.557 L 637.837,402.464 L 636.628,401.482 L 635.381,400.5 L 633.978,399.519 L 632.575,398.649 L 631.035,397.801 L 629.456,397.02 L 627.839,396.261 L 626.143,395.592 L 624.409,394.945 L 622.596,394.365 L 620.764,393.829 L 618.932,393.383 L 617.003,393.004 L 615.054,392.692 L 613.105,392.402 L 611.137,392.223 L 609.168,392.089 L 607.142,392 L 605.154,392 L 603.166,392.022 L 601.178,392.156 L 599.19,392.357 L 597.241,392.58 L 595.292,392.915 L 593.382,393.272 L 591.511,393.74 L 589.641,394.231 L 587.867,394.789 L 586.094,395.414 L 584.398,396.038 L 582.741,396.775 L 581.163,397.578 L 579.623,398.403 L 578.162,399.251 L 576.778,400.21 L 575.453,401.17 L 574.205,402.174 L 573.036,403.245 L 571.984,404.293 L 570.97,405.409 L 570.093,406.591 L 569.275,407.751 L 568.573,408.956 L 567.93,410.161 L 567.423,411.41 L 567.014,412.66"/>
    <path style="fill: #ffe9aa" d="M 553.43 430.709 L 572.88,411.143 L 571.672,410.384 L 570.405,409.603 L 569.119,408.889 L 567.793,408.287 L 566.449,407.685 L 565.045,407.171 L 563.603,406.681 L 562.181,406.301 L 560.68,405.944 L 559.199,405.654 L 557.679,405.476 L 556.159,405.32 L 554.638,405.23 L 553.118,405.23 L 551.579,405.23 L 550.058,405.387 L 548.538,405.52 L 547.038,405.788 L 545.557,406.078 L 544.095,406.48 L 542.633,406.904 L 541.23,407.372 L 539.827,407.93 L 538.482,408.555 L 537.176,409.224 L 535.929,409.938 L 534.682,410.697 L 533.512,411.522 L 532.401,412.392 L 531.31,413.329 L 530.297,414.311 L 529.361,415.293 L 528.465,416.364 L 527.646,417.457 L 526.867,418.572 L 526.184,419.71 L 525.541,420.87 L 524.996,422.097 L 524.508,423.325 L 524.119,424.574 L 523.807,425.823 L 523.534,427.095 L 523.339,428.389 L 523.261,429.661 L 523.222,430.933 L 523.281,432.249 L 523.398,433.543 L 523.631,434.792 L 553.43,430.709z"/>
    <path style="fill: none; fill-opacity:0; stroke-width: 0.03; stroke: #805d00" d="M 572.783 411.098 L 571.574,410.295 L 570.346,409.559 L 569.06,408.867 L 567.715,408.242 L 566.332,407.64 L 564.948,407.149 L 563.525,406.658 L 562.064,406.257 L 560.602,405.944 L 559.082,405.654 L 557.581,405.453 L 556.081,405.32 L 554.56,405.23 L 553.001,405.23 L 551.52,405.253 L 550,405.387 L 548.441,405.543 L 546.96,405.788 L 545.498,406.1 L 543.997,406.502 L 542.575,406.904 L 541.172,407.439 L 539.788,407.997 L 538.424,408.577 L 537.118,409.269 L 535.871,409.983 L 534.662,410.763 L 533.493,411.544 L 532.343,412.459 L 531.31,413.374 L 530.277,414.333 L 529.322,415.36 L 528.445,416.386 L 527.607,417.479 L 526.867,418.617 L 526.184,419.732 L 525.541,420.937 L 524.976,422.12 L 524.508,423.369 L 524.119,424.596 L 523.768,425.868 L 523.534,427.14 L 523.339,428.411 L 523.261,429.661 L 523.222,430.999 L 523.32,432.271 L 523.437,433.543 L 523.631,434.815"/>
    <path style="fill: #ffe9aa" d="M 548.012 476.291 L 516.713,475.621 L 516.713,476.759 L 516.771,477.897 L 516.927,479.079 L 517.181,480.217 L 517.473,481.355 L 517.843,482.471 L 518.33,483.586 L 518.837,484.679 L 519.48,485.706 L 520.162,486.777 L 520.883,487.803 L 521.741,488.785 L 522.599,489.744 L 523.573,490.681 L 524.567,491.551 L 525.639,492.399 L 526.789,493.202 L 527.958,493.939 L 529.186,494.697 L 530.472,495.344 L 531.797,495.991 L 533.181,496.571 L 534.584,497.084 L 535.987,497.553 L 537.469,497.977 L 538.969,498.334 L 540.489,498.646 L 542.029,498.892 L 543.569,499.092 L 545.128,499.226 L 546.706,499.315 L 548.304,499.315 L 549.844,499.249 L 551.423,499.182 L 552.982,499.025 L 554.521,498.825 L 556.081,498.535 L 557.562,498.222 L 559.082,497.843 L 560.505,497.397 L 561.947,496.884 L 563.35,496.37 L 564.675,495.768 L 566.02,495.143 L 567.248,494.452 L 568.476,493.693 L 548.012,476.291z"/>
    <path style="fill: none; fill-opacity:0; stroke-width: 0.03; stroke: #805d00" d="M 516.752 475.621 L 516.693,476.759 L 516.81,477.897 L 516.927,479.035 L 517.181,480.195 L 517.473,481.333 L 517.863,482.471 L 518.33,483.586 L 518.876,484.657 L 519.48,485.706 L 520.123,486.754 L 520.883,487.781 L 521.683,488.762 L 522.599,489.722 L 523.534,490.659 L 524.547,491.529 L 525.6,492.377 L 526.73,493.18 L 527.9,493.939 L 529.127,494.652 L 530.414,495.322 L 531.739,495.969 L 533.084,496.527 L 534.487,497.04 L 535.948,497.531 L 537.391,497.954 L 538.872,498.289 L 540.392,498.646 L 541.951,498.847 L 543.491,499.092 L 545.03,499.204 L 546.609,499.315 L 548.188,499.315 L 549.747,499.271 L 551.306,499.204 L 552.865,499.048 L 554.405,498.825 L 555.964,498.535 L 557.445,498.245 L 558.965,497.843 L 560.407,497.419 L 561.81,496.95 L 563.214,496.415 L 564.558,495.813 L 565.903,495.188 L 567.17,494.496 L 568.359,493.782"/>
    <path style="fill: #ffe9aa" d="M 647.601 426.537 L 675.139,432.985 L 675.606,432.026 L 675.957,431.066 L 676.288,430.062 L 676.483,429.081 L 676.678,428.099 L 676.717,427.095 L 676.717,426.046 L 676.678,425.042 L 676.522,424.061 L 676.308,423.079 L 675.996,422.075 L 675.626,421.116 L 675.197,420.156 L 674.69,419.175 L 674.106,418.282 L 673.443,417.367 L 672.702,416.497 L 671.942,415.605 L 671.104,414.824 L 670.208,413.999 L 669.253,413.218 L 668.201,412.504 L 667.148,411.812 L 665.998,411.143 L 664.848,410.54 L 663.64,409.983 L 662.393,409.425 L 661.087,408.956 L 659.762,408.488 L 658.398,408.108 L 656.994,407.751 L 655.611,407.461 L 654.149,407.194 L 652.707,407.015 L 651.245,406.859 L 649.764,406.77 L 648.302,406.681 L 646.841,406.725 L 645.359,406.77 L 643.878,406.881 L 642.436,407.038 L 640.974,407.216 L 639.532,407.461 L 638.11,407.774 L 647.601,426.537z"/>
    <path style="fill: none; fill-opacity:0; stroke-width: 0.03; stroke: #805d00" d="M 672.605 436.622 L 675.119,433.03 L 675.587,432.048 L 675.957,431.111 L 676.249,430.107 L 676.483,429.103 L 676.639,428.121 L 676.698,427.14 L 676.717,426.113 L 676.659,425.087 L 676.522,424.083 L 676.308,423.101 L 675.996,422.12 L 675.626,421.138 L 675.217,420.179 L 674.71,419.219 L 674.106,418.327 L 673.443,417.39 L 672.761,416.52 L 671.962,415.672 L 671.124,414.846 L 670.227,414.021 L 669.272,413.285 L 668.259,412.571 L 667.187,411.834 L 666.076,411.187 L 664.887,410.54 L 663.679,409.983 L 662.432,409.447 L 661.126,408.979 L 659.801,408.532 L 658.456,408.131 L 657.072,407.751 L 655.65,407.461 L 654.246,407.194 L 652.804,407.015 L 651.343,406.881 L 649.861,406.77 L 648.38,406.681 L 646.88,406.681 L 645.418,406.77 L 643.937,406.881 L 642.475,407.015 L 641.033,407.194 L 639.61,407.461 L 638.188,407.751"/>
    <path style="fill: #ffe9aa" d="M 651.518 452.775 L 682.525,460.918 L 683.149,459.87 L 683.655,458.799 L 684.123,457.683 L 684.493,456.568 L 684.747,455.452 L 684.922,454.337 L 684.981,453.176 L 684.981,452.061 L 684.864,450.923 L 684.688,449.763 L 684.376,448.647 L 684.006,447.576 L 683.519,446.461 L 682.993,445.39 L 682.33,444.297 L 681.589,443.293 L 680.79,442.311 L 679.874,441.307 L 678.9,440.37 L 651.518,452.775z"/>
    <path style="fill: none; fill-opacity:0; stroke-width: 0.03; stroke: #805d00" d="M 678.588 464.622 L 682.486,460.985 L 683.071,459.914 L 683.655,458.799 L 684.104,457.706 L 684.474,456.568 L 684.727,455.452 L 684.922,454.337 L 685,453.176 L 684.981,452.061 L 684.864,450.878 L 684.649,449.763 L 684.376,448.625 L 684.006,447.51 L 683.519,446.416 L 682.973,445.345 L 682.291,444.274 L 681.57,443.248 L 680.712,442.222 L 679.835,441.24 L 678.841,440.281 L 672.605,436.622"/>
    <path style="fill: #ffe9aa" d="M 650.212 474.305 L 640.429,505.295 L 641.871,505.786 L 643.333,506.21 L 644.794,506.589 L 646.314,506.857 L 647.796,507.035 L 649.277,507.124 L 650.816,507.147 L 652.317,507.035 L 653.798,506.901 L 655.299,506.633 L 656.761,506.321 L 658.222,505.919 L 659.664,505.406 L 661.087,504.826 L 662.451,504.179 L 663.816,503.443 L 665.141,502.662 L 666.427,501.747 L 667.674,500.788 L 668.863,499.784 L 669.994,498.691 L 671.085,497.553 L 672.137,496.326 L 673.131,495.054 L 674.028,493.76 L 674.885,492.377 L 675.704,490.971 L 676.425,489.476 L 677.068,488.004 L 677.672,486.442 L 678.179,484.88 L 678.647,483.296 L 679.017,481.668 L 679.329,480.017 L 679.524,478.388 L 679.699,476.714 L 679.738,475.041 L 679.738,473.368 L 679.66,471.717 L 679.504,470.044 L 679.27,468.393 L 678.978,466.742 L 678.588,465.135 L 650.212,474.305z"/>
    <path style="fill: none; fill-opacity:0; stroke-width: 0.03; stroke: #805d00" d="M 640.507 505.339 L 641.968,505.808 L 643.411,506.276 L 644.892,506.611 L 646.373,506.879 L 647.893,507.035 L 649.374,507.147 L 650.875,507.169 L 652.375,507.035 L 653.896,506.901 L 655.377,506.633 L 656.838,506.321 L 658.3,505.897 L 659.742,505.362 L 661.146,504.804 L 662.549,504.135 L 663.893,503.421 L 665.199,502.595 L 666.466,501.747 L 667.713,500.766 L 668.902,499.739 L 670.032,498.646 L 671.124,497.508 L 672.176,496.303 L 673.151,495.032 L 674.086,493.671 L 674.905,492.332 L 675.723,490.86 L 676.444,489.432 L 677.087,487.937 L 677.672,486.397 L 678.198,484.813 L 678.666,483.185 L 679.017,481.601 L 679.329,479.972 L 679.563,478.321 L 679.699,476.648 L 679.738,474.974 L 679.738,473.301 L 679.641,471.628 L 679.504,469.954 L 679.251,468.281 L 678.919,466.675 L 678.588,465.068"/>
    <path style="fill: #ffe9aa" d="M 526.262 456.679 L 524.781,435.662 L 523.69,435.774 L 522.657,435.908 L 521.566,436.131 L 520.513,436.376 L 519.48,436.733 L 518.467,437.068 L 517.473,437.492 L 516.498,437.983 L 515.524,438.474 L 514.608,439.031 L 513.712,439.678 L 512.854,440.348 L 512.016,441.039 L 511.256,441.776 L 510.496,442.557 L 509.794,443.337 L 509.132,444.185 L 508.528,445.1 L 507.923,445.97 L 507.397,446.929 L 506.949,447.911 L 506.52,448.893 L 506.111,449.874 L 505.799,450.923 L 505.546,451.949 L 505.312,453.02 L 505.136,454.047 L 505.058,455.14 L 505,456.211 L 505,457.259 L 505.058,458.353 L 505.175,459.424 L 505.351,460.472 L 505.546,461.543 L 505.838,462.569 L 506.15,463.573 L 506.54,464.622 L 506.968,465.581 L 507.456,466.541 L 507.982,467.478 L 508.586,468.393 L 509.19,469.24 L 509.872,470.088 L 510.593,470.914 L 511.334,471.717 L 512.133,472.431 L 512.971,473.122 L 513.828,473.747 L 514.744,474.394 L 515.641,474.952 L 516.615,475.465 L 526.262,456.679z"/>
    <path style="fill: none; fill-opacity:0; stroke-width: 0.03; stroke: #805d00" d="M 524.781 435.662 L 523.748,435.774 L 522.676,435.908 L 521.624,436.131 L 520.611,436.376 L 519.578,436.689 L 518.564,437.023 L 517.59,437.447 L 516.635,437.894 L 515.68,438.407 L 514.803,438.964 L 513.887,439.545 L 513.049,440.192 L 512.23,440.839 L 511.451,441.575 L 510.671,442.333 L 509.989,443.114 L 509.307,443.94 L 508.703,444.81 L 508.118,445.68 L 507.612,446.595 L 507.124,447.51 L 506.657,448.469 L 506.267,449.451 L 505.916,450.432 L 505.624,451.481 L 505.409,452.507 L 505.195,453.533 L 505.078,454.582 L 505,455.653 L 505,456.702 L 505,457.75 L 505.117,458.799 L 505.234,459.87 L 505.409,460.874 L 505.663,461.9 L 505.916,462.926 L 506.267,463.93 L 506.696,464.912 L 507.124,465.871 L 507.612,466.831 L 508.157,467.723 L 508.722,468.593 L 509.327,469.486 L 509.989,470.267 L 510.71,471.07 L 511.47,471.828 L 512.25,472.565 L 513.088,473.189 L 513.906,473.836 L 514.803,474.416 L 515.719,474.974 L 516.654,475.51"/>
    <path style="fill: #ffe9aa" d="M 605.212 490.48 L 560.855,492.935 L 561.148,494.162 L 561.518,495.366 L 562.025,496.571 L 562.668,497.731 L 563.35,498.936 L 564.188,500.074 L 565.104,501.19 L 566.137,502.283 L 567.287,503.354 L 568.515,504.402 L 569.801,505.362 L 571.223,506.343 L 572.705,507.28 L 574.283,508.151 L 575.94,508.976 L 577.655,509.757 L 579.487,510.493 L 581.319,511.185 L 583.248,511.787 L 585.217,512.412 L 587.282,512.903 L 589.348,513.394 L 591.434,513.773 L 593.616,514.152 L 595.799,514.442 L 598.001,514.688 L 600.184,514.844 L 602.425,514.955 L 604.686,515 L 606.908,514.978 L 609.168,514.888 L 611.39,514.732 L 613.592,514.576 L 615.775,514.286 L 617.958,513.996 L 620.063,513.594 L 622.168,513.148 L 624.214,512.635 L 626.241,512.077 L 628.19,511.497 L 630.061,510.828 L 631.893,510.114 L 633.666,509.355 L 635.362,508.552 L 636.979,507.704 L 638.48,506.767 L 639.942,505.853 L 641.286,504.849 L 642.573,503.845 L 643.761,502.818 L 644.814,501.747 L 645.788,500.632 L 646.685,499.494 L 647.445,498.334 L 605.212,490.48z"/>
    <path style="fill: none; fill-opacity:0; stroke-width: 0.03; stroke: #805d00" d="M 560.894 492.957 L 561.148,494.184 L 561.537,495.366 L 562.025,496.594 L 562.668,497.798 L 563.389,498.958 L 564.188,500.074 L 565.123,501.19 L 566.137,502.305 L 567.287,503.354 L 568.515,504.402 L 569.801,505.362 L 571.223,506.343 L 572.744,507.28 L 574.283,508.151 L 575.94,508.976 L 577.655,509.757 L 579.487,510.493 L 581.319,511.185 L 583.248,511.787 L 585.217,512.412 L 587.243,512.903 L 589.309,513.394 L 591.414,513.773 L 593.597,514.13 L 595.76,514.442 L 597.962,514.665 L 600.165,514.844 L 602.386,514.955 L 604.628,515 L 606.869,514.978 L 609.091,514.888 L 611.312,514.732 L 613.553,514.576 L 615.736,514.286 L 617.88,513.974 L 620.024,513.594 L 622.109,513.171 L 624.155,512.635 L 626.163,512.1 L 628.092,511.497 L 630.002,510.828 L 631.834,510.136 L 633.588,509.378 L 635.284,508.574 L 636.882,507.727 L 638.441,506.834 L 639.883,505.875 L 641.247,504.915 L 642.534,503.867 L 643.683,502.863 L 644.775,501.747 L 645.749,500.654 L 646.607,499.516 L 647.406,498.378"/>
  </g>
  <text font-size="12.8" style="fill: #000000;text-anchor:middle;font-family:sans-serif;font-style:normal;font-weight:normal" x="601.592" y="454.294">
    <tspan x="601.592" y="454.294">Xalgorithms</tspan>
    <tspan x="601.592" y="470.294">registry</tspan>
  </text>
  <g>
    <line style="fill: none; fill-opacity:0; stroke-width: 3; stroke: #ffa500" x1="387.387" y1="286.522" x2="536.267" y2="403.129"/>
    <polyline style="fill: none; fill-opacity:0; stroke-width: 3; stroke: #ffa500" points="527.951,402.967 538.907,405.197 534.118,395.095 "/>
  </g>
  <text font-size="12.8" style="fill: #000000;text-anchor:end;font-family:sans-serif;font-style:normal;font-weight:normal" x="549" y="353">
    <tspan x="549" y="353">file copy</tspan>
    <tspan x="549" y="369">of rules</tspan>
  </text>
  <g>
    <polyline style="fill: none; fill-opacity:0; stroke-width: 3; stroke: #ffa500" points="193.308,679 430,679 430,580 604.706,580 604.706,515 "/>
    <polyline style="fill: none; fill-opacity:0; stroke-width: 3; stroke: #ffa500" points="199.954,674 189.954,679 199.954,684 "/>
  </g>
  <text font-size="12.8" style="fill: #000000;text-anchor:start;font-family:sans-serif;font-style:normal;font-weight:normal" x="446" y="602">
    <tspan x="446" y="602">retreive list</tspan>
    <tspan x="446" y="618">of relevant rules</tspan>
  </text>
  <g>
    <polygon style="fill: #ea4242" points="156.6,431.3 154.52,473.465 163.309,473.899 151.976,525 154.057,482.835 145.268,482.401 "/>
    <polygon style="fill: none; fill-opacity:0; stroke-width: 1.6; stroke: #a52a2a" points="156.6,431.3 154.52,473.465 163.309,473.899 151.976,525 154.057,482.835 145.268,482.401 "/>
  </g>
  <text font-size="12.8" style="fill: #000000;text-anchor:middle;font-family:sans-serif;font-style:normal;font-weight:normal" x="158" y="480">
    <tspan x="158" y="480"></tspan>
  </text>
  <text font-size="12.8" style="fill: #000000;text-anchor:start;font-family:sans-serif;font-style:normal;font-weight:normal" x="172" y="482">
    <tspan x="172" y="482">transfer invoice</tspan>
    <tspan x="172" y="498">with UBL</tspan>
  </text>
</svg>
